<?xml version="1.0" encoding="UTF-8" standalone="no"?>
<!-- Created with Inkscape (http://www.inkscape.org/) -->

<svg
   xmlns:dc="http://purl.org/dc/elements/1.1/"
   xmlns:cc="http://creativecommons.org/ns#"
   xmlns:rdf="http://www.w3.org/1999/02/22-rdf-syntax-ns#"
   xmlns:svg="http://www.w3.org/2000/svg"
   xmlns="http://www.w3.org/2000/svg"
   xmlns:xlink="http://www.w3.org/1999/xlink"
   xmlns:sodipodi="http://sodipodi.sourceforge.net/DTD/sodipodi-0.dtd"
   xmlns:inkscape="http://www.inkscape.org/namespaces/inkscape"
   width="1170.41"
   height="625.52362"
   id="svg3616"
   version="1.1"
   inkscape:version="0.48.4 r9939"
   sodipodi:docname="ISAAC_logo.svg">
  <defs
     id="defs3618">
    <linearGradient
       x1="71.473709"
       y1="572.48981"
       x2="75.372711"
       y2="601.2041"
       id="linearGradient3715"
       xlink:href="#linearGradient4106-6"
       gradientUnits="userSpaceOnUse"
       gradientTransform="matrix(1.4849463,0,0,2.2382876,-313.36831,-738.8367)" />
    <linearGradient
       id="linearGradient4106-6">
      <stop
         id="stop4108-5"
         style="stop-color:#ffffff;stop-opacity:1"
         offset="0" />
      <stop
         id="stop4110-7"
         style="stop-color:#ffffff;stop-opacity:0"
         offset="1" />
    </linearGradient>
    <linearGradient
       x1="344.92227"
       y1="492.41071"
       x2="344.88144"
       y2="772.07605"
       id="linearGradient3718"
       xlink:href="#linearGradient4106"
       gradientUnits="userSpaceOnUse"
       gradientTransform="matrix(2.3742619,0,0,2.7243053,-446.03508,-770.1301)" />
    <linearGradient
       id="linearGradient4106">
      <stop
         id="stop4108"
         style="stop-color:#ffffff;stop-opacity:1"
         offset="0" />
      <stop
         id="stop4110"
         style="stop-color:#ffffff;stop-opacity:0"
         offset="1" />
    </linearGradient>
    <linearGradient
       x1="344.92227"
       y1="492.41071"
       x2="367.55417"
       y2="796.40228"
       id="linearGradient3721"
       xlink:href="#linearGradient4106"
       gradientUnits="userSpaceOnUse"
       gradientTransform="matrix(2.3742619,0,0,2.6822122,-459.49282,-698.5346)" />
    <linearGradient
       id="linearGradient3549">
      <stop
         id="stop3551"
         style="stop-color:#ffffff;stop-opacity:1"
         offset="0" />
      <stop
         id="stop3553"
         style="stop-color:#ffffff;stop-opacity:0"
         offset="1" />
    </linearGradient>
    <linearGradient
       x1="344.92227"
       y1="492.41071"
       x2="344.88144"
       y2="772.07605"
       id="linearGradient3748"
       xlink:href="#linearGradient4106"
       gradientUnits="userSpaceOnUse"
       gradientTransform="matrix(2.3742619,0,0,2.7243053,-446.03508,-738.7287)" />
    <linearGradient
       id="linearGradient3556">
      <stop
         id="stop3558"
         style="stop-color:#ffffff;stop-opacity:1"
         offset="0" />
      <stop
         id="stop3560"
         style="stop-color:#ffffff;stop-opacity:0"
         offset="1" />
    </linearGradient>
    <linearGradient
       inkscape:collect="always"
       xlink:href="#linearGradient4106"
       id="linearGradient3825"
       gradientUnits="userSpaceOnUse"
       gradientTransform="matrix(2.3742619,0,0,2.7243053,-446.03508,-738.7287)"
       x1="344.92227"
       y1="492.41071"
       x2="344.88144"
       y2="772.07605" />
    <linearGradient
       inkscape:collect="always"
       xlink:href="#linearGradient4106"
       id="linearGradient3827"
       gradientUnits="userSpaceOnUse"
       gradientTransform="matrix(2.3742619,0,0,2.6822122,-459.49282,-698.5346)"
       x1="344.92227"
       y1="492.41071"
       x2="367.55417"
       y2="796.40228" />
    <linearGradient
       inkscape:collect="always"
       xlink:href="#linearGradient4106"
       id="linearGradient3829"
       gradientUnits="userSpaceOnUse"
       gradientTransform="matrix(2.3742619,0,0,2.7243053,-446.03508,-770.1301)"
       x1="344.92227"
       y1="492.41071"
       x2="344.88144"
       y2="772.07605" />
    <linearGradient
       inkscape:collect="always"
       xlink:href="#linearGradient4106-6"
       id="linearGradient3831"
       gradientUnits="userSpaceOnUse"
       gradientTransform="matrix(1.4849463,0,0,2.2382876,-313.36831,-738.8367)"
       x1="71.473709"
       y1="572.48981"
       x2="75.372711"
       y2="601.2041" />
  </defs>
  <sodipodi:namedview
     id="base"
     pagecolor="#ffffff"
     bordercolor="#666666"
     borderopacity="1.0"
     inkscape:pageopacity="0.0"
     inkscape:pageshadow="2"
     inkscape:zoom="0.35"
     inkscape:cx="802.53252"
     inkscape:cy="379.69446"
     inkscape:document-units="px"
     inkscape:current-layer="g3769"
     showgrid="false"
     fit-margin-top="0"
     fit-margin-left="0"
     fit-margin-right="0"
     fit-margin-bottom="0"
     inkscape:window-width="959"
     inkscape:window-height="1175"
     inkscape:window-x="960"
     inkscape:window-y="0"
     inkscape:window-maximized="0" />
  <metadata
     id="metadata3621">
    <rdf:RDF>
      <cc:Work
         rdf:about="">
        <dc:format>image/svg+xml</dc:format>
        <dc:type
           rdf:resource="http://purl.org/dc/dcmitype/StillImage" />
        <dc:title></dc:title>
      </cc:Work>
    </rdf:RDF>
  </metadata>
  <g
     inkscape:label="Layer 1"
     inkscape:groupmode="layer"
     id="layer1"
     transform="translate(365.84866,-379.6004)">
    <g
       id="g3769"
       transform="translate(70.499217,0)">
      <rect
         style="fill:#ffffff;fill-opacity:1;stroke:#000000;stroke-width:0;stroke-linecap:butt;stroke-miterlimit:4;stroke-opacity:1;stroke-dasharray:none;stroke-dashoffset:0"
         id="rect3852"
         width="1177.1428"
         height="628.57141"
         x="0"
         y="2.6664777"
         transform="translate(-436.34788,379.6004)" />
      <path
         style="fill:#ffffff;fill-opacity:1;stroke:none"
         id="rect4099"
         d="m -350.10041,411.00182 1081.66335,0 0,580.66443 -1081.66335,0 z"
         inkscape:connector-curvature="0" />
      <path
         style="fill:none;stroke:#000000;stroke-width:5;stroke-linecap:butt;stroke-linejoin:miter;stroke-miterlimit:4;stroke-opacity:1;stroke-dasharray:none"
         id="path3959-1"
         d="M -60.805767,874.99912 -189.08859,750.39706 -53.369077,631.37425 l -215.663903,0 13.01419,225.02754 381.13018,-219.4483 55.77515,202.71072 L 361.22618,603.47833 -34.777357,516.07093 -244.86375,551.40584 -57.087417,633.234 275.70428,465.85816 424.43801,547.68636 335.19777,778.29313 123.25221,635.09374 89.787133,906.61453 428.48246,949.28371 496.9457,828.50587 424.43801,547.68636"
         inkscape:connector-curvature="0" />
      <path
         style="fill:none;stroke:#000000;stroke-width:5;stroke-linecap:butt;stroke-linejoin:miter;stroke-miterlimit:4;stroke-opacity:1;stroke-dasharray:none"
         id="path3937-0"
         d="m 498.80487,839.66421 -286.3124,81.82831"
         inkscape:connector-curvature="0" />
      <path
         style="fill:none;stroke:#000000;stroke-width:5;stroke-linecap:butt;stroke-linejoin:miter;stroke-miterlimit:4;stroke-opacity:1;stroke-dasharray:none"
         id="path3929-9"
         d="M 171.59068,837.80462 93.505473,902.89519"
         inkscape:connector-curvature="0" />
      <path
         style="fill:none;stroke:#000000;stroke-width:5;stroke-linecap:butt;stroke-linejoin:miter;stroke-miterlimit:4;stroke-opacity:1;stroke-dasharray:none"
         id="path3931-5"
         d="m 181.84878,837.80462 35.32427,81.82815"
         inkscape:connector-curvature="0" />
      <path
         style="fill:none;stroke:#000000;stroke-width:5;stroke-linecap:butt;stroke-linejoin:miter;stroke-miterlimit:4;stroke-opacity:1;stroke-dasharray:none"
         id="path3775-4"
         d="m -58.926657,870.45345 94.65353,-107.83229 148.553507,74.95658 152.4974,-59.17627 165.64373,56.54625 113.05842,-81.53189"
         inkscape:connector-curvature="0" />
      <path
         style="fill:none;stroke:#000000;stroke-width:5;stroke-linecap:butt;stroke-linejoin:miter;stroke-miterlimit:4;stroke-opacity:1;stroke-dasharray:none"
         id="path3801-0"
         d="M 622.05312,495.67023 518.12224,548.0834 m -186.16552,228.78175 199.38672,-52.37991 85.48265,28.73716"
         inkscape:connector-curvature="0" />
      <path
         style="fill:none;stroke:#000000;stroke-width:5;stroke-linecap:butt;stroke-linejoin:miter;stroke-miterlimit:4;stroke-opacity:1;stroke-dasharray:none"
         id="path4123-6"
         d="M 521.99332,547.79502 456.94754,464.80558"
         inkscape:connector-curvature="0" />
      <path
         style="opacity:0.64806866;fill:url(#linearGradient3825);fill-opacity:1;stroke:none"
         id="rect4093"
         d="m -350.10041,411.00182 1081.66335,0 0,580.66443 -1081.66335,0 z"
         inkscape:connector-curvature="0" />
      <path
         style="fill:#ffd42a;fill-opacity:1;stroke:#000000;stroke-width:1;stroke-miterlimit:4"
         id="path3781-9"
         d="m 196.375,837.18324 c 0,8.3521 -6.7687,15.12282 -15.11829,15.12282 -8.34959,0 -15.11828,-6.77072 -15.11828,-15.12282 0,-8.35212 6.76869,-15.12284 15.11828,-15.12284 8.34959,0 15.11829,6.77072 15.11829,15.12284 z"
         inkscape:connector-curvature="0" />
      <path
         style="fill:#ffd42a;fill-opacity:1;stroke:#000000;stroke-width:1;stroke-miterlimit:4"
         id="path3783-7"
         d="m 279.5385,732.82868 c 0,8.3521 -6.7687,15.12282 -15.11829,15.12282 -8.34959,0 -15.11828,-6.77072 -15.11828,-15.12282 0,-8.35212 6.76869,-15.12284 15.11828,-15.12284 8.34959,0 15.11829,6.77072 15.11829,15.12284 z"
         inkscape:connector-curvature="0" />
      <path
         style="fill:#2ca089;fill-opacity:1;stroke:#000000;stroke-width:1;stroke-miterlimit:4"
         id="path3840-4"
         d="m 541.78935,725.35185 c 0,5.57591 -4.51877,10.09608 -10.09295,10.09608 -5.57418,0 -10.09294,-4.52017 -10.09294,-10.09608 0,-5.57592 4.51876,-10.09609 10.09294,-10.09609 5.57418,0 10.09295,4.52017 10.09295,10.09609 z"
         inkscape:connector-curvature="0" />
      <path
         style="fill:#672178;fill-opacity:1;stroke:#000000;stroke-width:1;stroke-miterlimit:4"
         id="path3881-1"
         d="m 631.51848,499.22075 c 0,6.17329 -5.00295,11.17774 -11.17439,11.17774 -6.17144,0 -11.17438,-5.00445 -11.17438,-11.17774 0,-6.1733 5.00294,-11.17775 11.17438,-11.17775 6.17144,0 11.17439,5.00445 11.17439,11.17775 z"
         inkscape:connector-curvature="0" />
      <path
         style="fill:#2ca089;fill-opacity:1;stroke:#000000;stroke-width:1.00000012;stroke-miterlimit:4"
         id="path3889-8"
         d="m 636.92424,751.89988 c 0,11.12829 -9.01865,20.14956 -20.1437,20.14956 -11.12505,0 -20.14368,-9.02127 -20.14368,-20.14956 0,-11.12832 9.01863,-20.14959 20.14368,-20.14959 11.12505,0 20.1437,9.02127 20.1437,20.14959 z"
         inkscape:connector-curvature="0" />
      <path
         style="fill:#2ca089;fill-opacity:1;stroke:#000000;stroke-width:1.00000012;stroke-miterlimit:4"
         id="path3921-3"
         d="m 445.11492,944.61998 c 0,12.70972 -10.30018,23.01299 -23.00608,23.01299 -12.70591,0 -23.00608,-10.30327 -23.00608,-23.01299 0,-12.70975 10.30017,-23.01302 23.00608,-23.01302 12.7059,0 23.00608,10.30327 23.00608,23.01302 z"
         inkscape:connector-curvature="0" />
      <path
         style="fill:#71c837;fill-opacity:1;stroke:#000000;stroke-width:1;stroke-miterlimit:4"
         id="path3923-4"
         d="m -40.878957,871.37399 c 0,12.36705 -10.02257,22.39253 -22.38602,22.39253 -12.36345,0 -22.38601,-10.02548 -22.38601,-22.39253 0,-12.36707 10.02256,-22.39255 22.38601,-22.39255 12.36345,0 22.38602,10.02548 22.38602,22.39255 z"
         inkscape:connector-curvature="0" />
      <path
         style="fill:#71c837;fill-opacity:1;stroke:#000000;stroke-width:1;stroke-miterlimit:4"
         id="path3925-2"
         d="m 46.506883,766.17166 c 0,6.17329 -5.00295,11.17774 -11.17439,11.17774 -6.17144,0 -11.17438,-5.00445 -11.17438,-11.17774 0,-6.1733 5.00294,-11.17775 11.17438,-11.17775 6.17144,0 11.17439,5.00445 11.17439,11.17775 z"
         inkscape:connector-curvature="0" />
      <path
         style="fill:#2ca089;fill-opacity:1;stroke:#000000;stroke-width:0.99999994;stroke-miterlimit:4"
         id="path3927-0"
         d="m 518.46002,833.23814 c 0,10.53091 -8.53444,19.0679 -19.06219,19.0679 -10.52775,0 -19.06218,-8.53699 -19.06218,-19.0679 0,-10.53094 8.53443,-19.06793 19.06218,-19.06793 10.52775,0 19.06219,8.53699 19.06219,19.06793 z"
         inkscape:connector-curvature="0" />
      <path
         style="fill:#71c837;fill-opacity:1;stroke:#000000;stroke-width:1;stroke-miterlimit:4"
         id="path3933-9"
         d="m 112.2131,902.06427 c 0,8.3521 -6.7687,15.12282 -15.118287,15.12282 -8.34959,0 -15.11828,-6.77072 -15.11828,-15.12282 0,-8.35212 6.76869,-15.12284 15.11828,-15.12284 8.349587,0 15.118287,6.77072 15.118287,15.12284 z"
         inkscape:connector-curvature="0" />
      <path
         style="fill:#ffd42a;fill-opacity:1;stroke:#000000;stroke-width:1;stroke-miterlimit:4"
         id="path3935-4"
         d="m 238.3102,923.80176 c 0,13.30711 -10.78438,24.09465 -24.08755,24.09465 -13.30319,0 -24.08754,-10.78754 -24.08754,-24.09465 0,-13.30713 10.78435,-24.09467 24.08754,-24.09467 13.30317,0 24.08755,10.78754 24.08755,24.09467 z"
         inkscape:connector-curvature="0" />
      <path
         style="fill:#672178;fill-opacity:1;stroke:#000000;stroke-width:0.99999994;stroke-miterlimit:4"
         id="path3961-7"
         d="m 152.47968,641.56964 c 0,13.363 -10.82961,24.19585 -24.18859,24.19585 -13.35899,0 -24.18858,-10.83285 -24.18858,-24.19585 0,-13.36302 10.82959,-24.19588 24.18858,-24.19588 13.35898,0 24.18859,10.83286 24.18859,24.19588 z"
         inkscape:connector-curvature="0" />
      <path
         style="fill:#672178;fill-opacity:1;stroke:#000000;stroke-width:0.99999994;stroke-miterlimit:4"
         id="path3963-8"
         d="m 446.22878,552.30251 c 0,13.363 -10.82961,24.19585 -24.18859,24.19585 -13.35899,0 -24.18858,-10.83285 -24.18858,-24.19585 0,-13.36302 10.82959,-24.19588 24.18858,-24.19588 13.35898,0 24.18859,10.83286 24.18859,24.19588 z"
         inkscape:connector-curvature="0" />
      <path
         style="fill:#2ca089;fill-opacity:1;stroke:#000000;stroke-width:1;stroke-miterlimit:4"
         id="path3783-8-4"
         d="m 352.1752,778.29311 c 0,8.3521 -6.7687,15.12282 -15.11829,15.12282 -8.34959,0 -15.11828,-6.77072 -15.11828,-15.12282 0,-8.35212 6.76869,-15.12284 15.11828,-15.12284 8.34959,0 15.11829,6.77072 15.11829,15.12284 z"
         inkscape:connector-curvature="0" />
      <path
         style="fill:#ffd42a;fill-opacity:1;stroke:#000000;stroke-width:1;stroke-miterlimit:4"
         id="path3994-7"
         d="m 374.4853,609.0575 c 0,8.3521 -6.7687,15.12282 -15.11829,15.12282 -8.34959,0 -15.11828,-6.77072 -15.11828,-15.12282 0,-8.35212 6.76869,-15.12284 15.11828,-15.12284 8.34959,0 15.11829,6.77072 15.11829,15.12284 z"
         inkscape:connector-curvature="0" />
      <path
         style="fill:#71c837;fill-opacity:1;stroke:#000000;stroke-width:1;stroke-miterlimit:4"
         id="path3923-7-2"
         d="m -246.70352,854.5421 c 0,6.17329 -5.00295,11.17774 -11.17439,11.17774 -6.17144,0 -11.17437,-5.00445 -11.17437,-11.17774 0,-6.1733 5.00293,-11.17775 11.17437,-11.17775 6.17144,0 11.17439,5.00445 11.17439,11.17775 z"
         inkscape:connector-curvature="0" />
      <path
         style="fill:#71c837;fill-opacity:1;stroke:#000000;stroke-width:1;stroke-miterlimit:4"
         id="path3923-8-9"
         d="m -177.91422,752.25683 c 0,6.17329 -5.00295,11.17774 -11.17439,11.17774 -6.17144,0 -11.17438,-5.00445 -11.17438,-11.17774 0,-6.1733 5.00294,-11.17775 11.17438,-11.17775 6.17144,0 11.17439,5.00445 11.17439,11.17775 z"
         inkscape:connector-curvature="0" />
      <path
         style="fill:#c83737;fill-opacity:1;stroke:#000000;stroke-width:1;stroke-miterlimit:4"
         id="path3923-85-2"
         d="m -261.57692,633.234 c 0,6.17329 -5.00295,11.17774 -11.17438,11.17774 -6.17144,0 -11.17438,-5.00445 -11.17438,-11.17774 0,-6.1733 5.00294,-11.17775 11.17438,-11.17775 6.17143,0 11.17438,5.00445 11.17438,11.17775 z"
         inkscape:connector-curvature="0" />
      <path
         style="fill:#c83737;fill-opacity:1;stroke:#000000;stroke-width:0.99999994;stroke-miterlimit:4"
         id="path3927-3-4"
         d="m -47.321077,636.95346 c 0,10.53091 -8.53444,19.0679 -19.06219,19.0679 -10.52775,0 -19.06218,-8.53699 -19.06218,-19.0679 0,-10.53094 8.53443,-19.06793 19.06218,-19.06793 10.52775,0 19.06219,8.53699 19.06219,19.06793 z"
         inkscape:connector-curvature="0" />
      <path
         style="fill:#c83737;fill-opacity:1;stroke:#000000;stroke-width:0.99999994;stroke-miterlimit:4"
         id="path3927-8-9"
         d="m -227.66068,553.26552 c 0,10.53091 -8.53444,19.0679 -19.06219,19.0679 -10.52775,0 -19.06218,-8.53699 -19.06218,-19.0679 0,-10.53094 8.53443,-19.06793 19.06218,-19.06793 10.52775,0 19.06219,8.53699 19.06219,19.06793 z"
         inkscape:connector-curvature="0" />
      <path
         style="fill:#c83737;fill-opacity:1;stroke:#000000;stroke-width:0.99999994;stroke-miterlimit:4"
         id="path3927-81-9"
         d="m -13.855977,516.07088 c 0,10.53091 -8.53444,19.0679 -19.06219,19.0679 -10.52775,0 -19.06218,-8.53699 -19.06218,-19.0679 0,-10.53094 8.53443,-19.06793 19.06218,-19.06793 10.52775,0 19.06219,8.53699 19.06219,19.06793 z"
         inkscape:connector-curvature="0" />
      <path
         style="fill:#672178;fill-opacity:1;stroke:#000000;stroke-width:1;stroke-miterlimit:4"
         id="path3925-9-0"
         d="m 126.98986,551.40582 c 0,9.2546 -7.50008,16.75693 -16.7519,16.75693 -9.25181,0 -16.751887,-7.50233 -16.751887,-16.75693 0,-9.25461 7.500077,-16.75695 16.751887,-16.75695 9.25182,0 16.7519,7.50234 16.7519,16.75695 z"
         inkscape:connector-curvature="0" />
      <path
         style="fill:#672178;fill-opacity:1;stroke:#000000;stroke-width:1;stroke-miterlimit:4"
         id="path4125-6"
         d="m 466.55708,466.51036 c 0,6.17329 -5.00295,11.17774 -11.17439,11.17774 -6.17144,0 -11.17438,-5.00445 -11.17438,-11.17774 0,-6.17331 5.00294,-11.17775 11.17438,-11.17775 6.17144,0 11.17439,5.00444 11.17439,11.17775 z"
         inkscape:connector-curvature="0" />
      <path
         style="fill:#672178;fill-opacity:1;stroke:#000000;stroke-width:1;stroke-miterlimit:4"
         id="path4127-9"
         d="m 289.3724,468.7649 c 0,8.3521 -6.7687,15.12282 -15.11829,15.12282 -8.34959,0 -15.11828,-6.77072 -15.11828,-15.12282 0,-8.35212 6.76869,-15.12284 15.11828,-15.12284 8.34959,0 15.11829,6.77072 15.11829,15.12284 z"
         inkscape:connector-curvature="0" />
      <path
         style="opacity:0;fill:url(#linearGradient3827);fill-opacity:1;stroke:none"
         id="rect4085"
         d="m -363.55816,433.43142 1081.6633,0 0,571.69258 -1081.6633,0 z"
         inkscape:connector-curvature="0" />
      <path
         style="opacity:0.33476395;fill:url(#linearGradient3829);fill-opacity:1;stroke:none"
         id="rect4097"
         d="m -350.10041,379.6004 1081.66335,0 0,580.66442 -1081.66335,0 z"
         inkscape:connector-curvature="0" />
      <g
         style="font-size:276.23535156px;font-style:normal;font-variant:normal;font-weight:normal;font-stretch:normal;line-height:125%;letter-spacing:0px;word-spacing:0px;fill:#000000;fill-opacity:1;stroke:none;font-family:Symbol;-inkscape-font-specification:Symbol"
         id="text3947"
         transform="translate(-186.92556,-0.65113238)">
        <path
           style="font-weight:bold;-inkscape-font-specification:Symbol Bold"
           id="path3556"
           d="m 137.08357,591.26791 0,42.62225 c -11.06036,-4.94546 -21.85079,-8.67715 -32.37133,-11.19508 -10.520805,-2.51761 -20.456995,-3.77649 -29.8086,-3.77666 -12.409101,1.7e-4 -21.580969,1.70865 -27.515631,5.12546 -5.934814,3.41714 -8.902183,8.72243 -8.902116,15.91591 -6.7e-5,5.39536 1.978179,9.62161 5.934744,12.67877 4.04634,2.9675 11.329882,5.53023 21.850648,7.68819 l 22.120409,4.45106 c 22.390026,4.49613 38.305916,11.33007 47.747716,20.50184 9.44146,9.17197 14.16227,22.21041 14.16245,39.11536 -1.8e-4,22.21037 -6.60932,38.7557 -19.82744,49.63604 -13.12852,10.79044 -33.225696,16.18566 -60.291599,16.18566 -12.768777,0 -25.582416,-1.21393 -38.440955,-3.64177 -12.858659,-2.42785 -25.7172578,-6.02466 -38.5758351,-10.79045 l 0,-43.83617 c 12.8585773,6.83399 25.2675751,12.00441 37.2270301,15.51126 12.049257,3.41701 23.648972,5.12549 34.79918,5.12546 11.32986,3e-5 20.007167,-1.88829 26.031944,-5.66498 6.024539,-3.77661 9.036865,-9.17183 9.036995,-16.18567 -1.3e-4,-6.29436 -2.068293,-11.15006 -6.204503,-14.5671 -4.046535,-3.4169 -12.184319,-6.47419 -24.413378,-9.17187 L 49.546098,702.54436 C 29.403879,698.22827 14.656954,691.34937 5.3052797,681.90764 -3.956542,672.46611 -8.587436,659.74239 -8.5874162,643.73644 c -1.98e-5,-20.05208 6.4742398,-35.4734 19.4227982,-46.26402 12.94848,-10.79025 31.561976,-16.18546 55.840545,-16.18567 11.060098,2.1e-4 22.435012,0.85445 34.124773,2.56273 11.68951,1.61877 23.78379,4.09158 36.28287,7.41843"
           inkscape:connector-curvature="0" />
        <path
           style="font-weight:bold;-inkscape-font-specification:Symbol Bold"
           id="path3558"
           d="m 318.22814,749.61767 -81.19809,0 -12.81365,36.68751 -52.19877,0 74.58894,-201.37665 61.91017,0 74.58894,201.37665 -52.19877,0 -12.67877,-36.68751 m -68.24956,-37.36191 55.16614,0 -27.51563,-80.11904 -27.65051,80.11904"
           inkscape:connector-curvature="0" />
        <path
           style="font-weight:bold;-inkscape-font-specification:Symbol Bold"
           id="path3560"
           d="m 531.87892,749.61767 -81.19808,0 -12.81365,36.68751 -52.19877,0 74.58894,-201.37665 61.91017,0 74.58894,201.37665 -52.19877,0 -12.67878,-36.68751 m -68.24955,-37.36191 55.16614,0 -27.51563,-80.11904 -27.65051,80.11904"
           inkscape:connector-curvature="0" />
      </g>
      <g
         style="font-size:276.23535156px;font-style:normal;font-variant:normal;font-weight:normal;font-stretch:normal;line-height:125%;letter-spacing:0px;word-spacing:0px;fill:#000000;fill-opacity:1;stroke:none;font-family:Symbol;-inkscape-font-specification:Symbol"
         id="text2991"
         transform="translate(-186.92556,-0.65113238)">
        <path
           style="font-weight:bold;-inkscape-font-specification:Symbol Bold"
           id="path3563"
           d="m -116.10239,584.92853 51.929011,0 0,201.37665 -51.929011,0 0,-201.37665"
           inkscape:connector-curvature="0" />
      </g>
      <path
         style="font-size:medium;font-style:normal;font-variant:normal;font-weight:normal;font-stretch:normal;text-indent:0;text-align:start;text-decoration:none;line-height:normal;letter-spacing:normal;word-spacing:normal;text-transform:none;direction:ltr;block-progression:tb;writing-mode:lr-tb;text-anchor:start;baseline-shift:baseline;color:#000000;fill:#000000;fill-opacity:1;fill-rule:nonzero;stroke:none;stroke-width:21.29518127;marker:none;visibility:visible;display:inline;overflow:visible;enable-background:accumulate;font-family:Sans;-inkscape-font-specification:Sans"
         id="path3911"
         d="m 537.73757,569.70407 c -66.23216,0 -120.35573,54.12348 -120.35573,120.35565 0,66.23217 54.12357,120.3558 120.35573,120.3558 26.53945,0 51.14114,-7.17789 71.09474,-20.0184 L 586.0663,759.87887 c -13.47007,7.49756 -30.16845,11.28489 -48.32873,11.28489 -45.01894,0 -81.0549,-36.08509 -81.0549,-81.10404 0,-45.01895 36.03596,-81.10388 81.0549,-81.10388 21.92548,0 40.57877,8.23831 53.97117,21.83371 l 27.23092,-30.91076 C 597.78865,580.9417 569.32392,569.70407 537.73757,569.70407 z"
         inkscape:connector-curvature="0" />
      <path
         style="fill:none;stroke:#000000;stroke-width:10;stroke-linecap:butt;stroke-linejoin:miter;stroke-miterlimit:4;stroke-opacity:1;stroke-dasharray:none"
         id="path3913"
         d="m 523.22606,622.30599 11.79879,93.40743 50.78355,-59.43534"
         inkscape:connector-curvature="0" />
    </g>
  </g>
</svg>
